<?xml version="1.0" encoding="UTF-8"?>
<svg id="a" data-name="Layer 1" xmlns="http://www.w3.org/2000/svg" viewBox="0 0 40.375 40.375">
  <g>
    <g id="b" data-name="line">
      <path d="M15.033,24.581c-.016.187-.167.338-.354.358-2.275.243-4.025,2.483-4.025,5.209,0,2.889,2.003,5.23,4.475,5.23h17.059c2.715,0,4.916-2.475,4.916-5.527,0-2.926-2.022-5.321-4.581-5.515-.195-.015-.353-.152-.39-.344-.571-2.934-3.208-5.139-6.324-5.139-2.026,0-3.831.918-5.003,2.377-.114.142-.304.207-.472.137-.452-.19-.929-.282-1.462-.282-2.013,0-3.666,1.537-3.838,3.495Z" fill="#fff" stroke="#000" stroke-linecap="round" stroke-linejoin="round" stroke-width="1.333"/>
    </g>
    <g>
      <path d="M17.714,32.082c-.428-.221-.759-.531-.991-.929-.233-.398-.349-.86-.349-1.386v-2.782c0-.525.116-.987.349-1.385.232-.398.563-.706.991-.924.428-.217.924-.327,1.487-.327.556,0,1.047.105,1.476.315.428.21.758.507.991.89.233.383.349.826.349,1.329,0,.038-.013.069-.039.096-.027.026-.059.04-.096.04l-1.036.056c-.09,0-.135-.041-.135-.124,0-.443-.137-.8-.411-1.07-.274-.271-.64-.406-1.098-.406s-.826.135-1.104.406c-.278.27-.417.627-.417,1.07v2.873c0,.436.139.789.417,1.059.278.271.646.406,1.104.406s.824-.133,1.098-.4.411-.622.411-1.064c0-.083.045-.124.135-.124l1.036.045c.038,0,.069.011.096.034.026.023.039.049.039.079,0,.511-.116.959-.349,1.346s-.563.685-.991.896c-.428.21-.92.315-1.476.315-.563,0-1.059-.111-1.487-.333Z"/>
      <path d="M24.585,32.093c-.436-.229-.771-.554-1.008-.974-.237-.42-.355-.905-.355-1.453v-2.568c0-.541.12-1.02.36-1.436.24-.417.576-.74,1.008-.969.432-.229.929-.344,1.492-.344.571,0,1.072.115,1.504.344.432.229.768.552,1.008.969.24.417.36.896.36,1.436v2.568c0,.548-.12,1.033-.36,1.453-.241.42-.577.745-1.008.974-.432.229-.933.344-1.504.344-.563,0-1.062-.115-1.498-.344ZM27.221,30.871c.286-.293.428-.68.428-1.16v-2.625c0-.488-.143-.878-.428-1.171-.285-.293-.665-.439-1.138-.439-.465,0-.841.146-1.126.439-.285.293-.428.684-.428,1.171v2.625c0,.48.143.867.428,1.16.286.293.661.439,1.126.439.473,0,.853-.146,1.138-.439Z"/>
    </g>
    <path d="M31.146,32.079c.004.009.014.014.027.014h1.85c.022,0,.042.008.058.024.016.016.024.035.024.058v.662c0,.023-.008.042-.024.058-.016.016-.035.024-.058.024h-3.072c-.023,0-.042-.008-.058-.024-.016-.016-.024-.035-.024-.058v-.628c0-.041.014-.075.041-.103.223-.218.451-.456.683-.713.232-.257.378-.417.437-.481.127-.15.257-.293.389-.43.414-.46.621-.801.621-1.024,0-.159-.057-.29-.17-.393-.114-.102-.262-.153-.444-.153s-.33.051-.444.153c-.114.103-.17.238-.17.406v.171c0,.023-.008.042-.024.058-.016.016-.036.024-.058.024h-.806c-.023,0-.042-.008-.058-.024s-.024-.035-.024-.058v-.321c.014-.246.091-.463.232-.652.141-.189.329-.333.563-.434s.497-.15.789-.15c.323,0,.604.061.843.181.239.121.423.283.553.488.13.205.195.433.195.683,0,.191-.048.387-.144.587s-.239.417-.43.648c-.141.178-.293.353-.458.526-.164.173-.407.423-.73.751l-.102.102c-.009.009-.012.019-.007.027Z"/>
  </g>
  <g id="c" data-name="line">
    <path d="M10.054,11.503c1.186-4.082,5.799-6.261,5.799-6.261,0,0,2.66,4.395,1.47,8.379s-6.16,7.531-6.16,7.531c0,0-2.295-5.566-1.109-9.649Z" fill="#fff" stroke="#000" stroke-linecap="round" stroke-linejoin="round" stroke-width="1.333"/>
    <line x1="10.782" y1="23.228" x2="11.163" y2="21.151" fill="none" stroke="#000" stroke-linecap="round" stroke-linejoin="round" stroke-width="1.333"/>
  </g>
  <g>
    <path d="M20.936,7.872c3.209-1.22,7.049-.04,8.802,4.891" fill="none" stroke="#000" stroke-linecap="round" stroke-linejoin="round" stroke-width="1.5"/>
    <polygon points="26.444 12.597 30.611 17.096 32.425 11.238 26.444 12.597"/>
  </g>
  <g>
    <path d="M7.688,30.462c-3.132-1.406-5.013-4.956-2.765-9.682" fill="none" stroke="#000" stroke-linecap="round" stroke-linejoin="round" stroke-width="1.5"/>
    <polygon points="7.134 23.227 7.368 17.099 1.944 19.959 7.134 23.227"/>
  </g>
  <path d="M12.227,17.096c.852-3.896,1.501-7.043,2.552-8.67" fill="none" stroke="#000" stroke-linecap="round" stroke-linejoin="round"/>
</svg>