<?xml version="1.0" encoding="UTF-8"?>
<svg id="a" data-name="Layer 1" xmlns="http://www.w3.org/2000/svg" viewBox="0 0 40.375 40.375">
  <g>
    <rect x="4.8" y="31.952" width="5.735" height="2.501" fill="#fff"/>
    <path d="M9.869,32.618v1.168h-4.402v-1.168h4.402M11.202,31.285h-7.068v3.835h7.068v-3.835h0Z"/>
  </g>
  <g>
    <rect x="13.039" y="24.282" width="5.735" height="10.171" fill="#fff"/>
    <path d="M18.107,24.949v8.838h-4.402v-8.838h4.402M19.44,23.615h-7.068v11.505h7.068v-11.505h0Z"/>
  </g>
  <g>
    <rect x="21.277" y="28.117" width="5.735" height="6.336" fill="#fff"/>
    <path d="M26.345,28.784v5.003h-4.402v-5.003h4.402M27.679,27.45h-7.068v7.67h7.068v-7.67h0Z"/>
  </g>
  <g>
    <rect x="29.928" y="18.854" width="4.909" height="15.599" fill="#fff"/>
    <path d="M34.17,19.521v14.266h-3.575v-14.266h3.575M35.503,18.187h-6.242v16.932h6.242v-16.932h0Z"/>
  </g>
  <g>
    <polyline points="7.668 23.635 15.906 15.946 23.878 19.801 29.886 11.645" fill="none" stroke="#000" stroke-linecap="round" stroke-linejoin="round" stroke-width="1.333"/>
    <polygon points="31.733 14.068 32.382 8.256 27.024 10.599 31.733 14.068"/>
  </g>
  <path d="M15.846,8.307c-.075,0-.137-.024-.186-.073s-.073-.111-.073-.186v-.394c0-.075.024-.137.073-.186s.111-.073.186-.073h4.088c.075,0,.137.024.186.073s.073.111.073.186v.394c0,.075-.024.137-.073.186s-.111.073-.186.073h-4.088ZM15.846,9.906c-.075,0-.137-.024-.186-.073s-.073-.111-.073-.186v-.394c0-.075.024-.137.073-.186s.111-.073.186-.073h4.088c.075,0,.137.024.186.073s.073.111.073.186v.394c0,.075-.024.137-.073.186s-.111.073-.186.073h-4.088ZM19.687,12.7c-.698,0-1.278-.131-1.74-.395-.462-.263-.806-.631-1.031-1.104-.225-.473-.346-1.021-.36-1.645v-1.825c.015-.63.137-1.181.366-1.65.229-.469.572-.835,1.03-1.098s1.037-.395,1.735-.395c.525,0,.985.068,1.38.203.394.135.721.314.98.535.259.222.454.47.585.744s.205.55.22.828c.007.068-.013.124-.062.169-.049.045-.107.068-.174.068h-.62c-.067,0-.124-.019-.169-.057-.045-.037-.083-.105-.113-.203-.127-.48-.366-.822-.715-1.025-.349-.203-.787-.304-1.312-.304-.624,0-1.109.177-1.458.529-.35.353-.528.924-.535,1.712v1.712c.007.789.186,1.359.535,1.712.349.353.835.529,1.458.529.525,0,.963-.102,1.312-.304.35-.203.588-.544.715-1.025.03-.098.068-.165.113-.203s.102-.057.169-.057h.62c.067,0,.125.022.174.068.049.045.069.101.062.169-.015.278-.088.554-.22.828-.131.274-.327.522-.585.744-.259.221-.586.4-.98.535-.395.135-.854.203-1.38.203Z"/>
</svg>