<?xml version="1.0" encoding="UTF-8"?>
<svg id="a" data-name="Layer 1" xmlns="http://www.w3.org/2000/svg" viewBox="0 0 40.375 40.375">
  <g id="b" data-name="line">
    <path d="M24.196,6.848c-.222-.938-.089-1.715-.089-1.715,0,0,1.629-.217,2.94.857.287-1.703,1.617-2.692,1.617-2.692,0,0,1.264,1.024,1.448,2.733.317-.24.649-.411.971-.529,1.068-.401,2.022-.248,2.022-.248,0,0,.028,2.69-2.56,4.127-1.605.891.198,2.113-1.831,2.113s-.64-1.394-2.222-2.113-2.16-1.961-2.296-2.533" fill="#fff" stroke="#000" stroke-linejoin="round" stroke-width="1.333"/>
    <path d="M24.688,13.215c-.502.941-.746,2.182-.592,3.481,0,0,1.406,19.891,4.496,19.891s4.509-19.928,4.509-19.928c.128-1.277-.127-2.495-.628-3.425,0,0-.558-1.74-3.758-1.74s-4.026,1.721-4.026,1.721Z" fill="#fff" stroke="#000" stroke-linecap="round" stroke-linejoin="round" stroke-width="1.333"/>
  </g>
  <g>
    <g id="c" data-name="line">
      <path d="M12.543,4.97c5.416,0,6.266,4.842,6.266,8.86,0,4.726-3.726,6.643-3.718,9.071.005,1.623-.01,3.622,0,4.02.057,2.209-.746,1.803-.746,1.803-.46,0-1.201,0-1.803,0-.602,0-1.343,0-1.803,0,0,0-.802.406-.746-1.803.01-.398-.005-2.397,0-4.02.008-2.428-3.718-4.344-3.718-9.071,0-4.018.851-8.86,6.266-8.86Z" fill="#fff" stroke="#000" stroke-linecap="round" stroke-linejoin="round" stroke-width="1.333"/>
    </g>
    <path d="M11.041,35.934c.628,0,1.18-.322,1.502-.809.323.487.874.809,1.502.809.996,0,1.803-.807,1.803-1.802s-.807-1.803-1.803-1.803v-3.605h-3.005v3.605c-.996,0-1.803.807-1.803,1.803,0,.996.807,1.803,1.803,1.803Z" fill="#fff" stroke="#000" stroke-linecap="round" stroke-linejoin="round" stroke-width="1.337"/>
  </g>
  <circle cx="10.757" cy="8.935" r=".702"/>
  <circle cx="8.966" cy="11.149" r=".702"/>
  <circle cx="10.055" cy="14.023" r=".702"/>
  <line x1="29.419" y1="15.752" x2="32.834" y2="15.752" fill="#fff" stroke="#231f20" stroke-linecap="round" stroke-linejoin="round" stroke-width="1.333"/>
  <line x1="25.015" y1="24.04" x2="27.81" y2="24.04" fill="#fff" stroke="#231f20" stroke-linecap="round" stroke-linejoin="round" stroke-width="1.333"/>
  <line x1="30.169" y1="18.26" x2="32.666" y2="18.26" fill="#fff" stroke="#231f20" stroke-linecap="round" stroke-linejoin="round" stroke-width="1.333"/>
</svg>