<?xml version="1.0" encoding="UTF-8"?>
<svg id="a" data-name="Layer 1" xmlns="http://www.w3.org/2000/svg" viewBox="0 0 32.841 25.536">
  <path d="M16.42,2.736c-3.716,0-6.772,1.687-9.114,3.859-2.195,2.041-3.711,4.463-4.486,6.173.775,1.71,2.291,4.133,4.486,6.173,2.343,2.172,5.398,3.859,9.114,3.859s6.772-1.687,9.114-3.859c2.195-2.041,3.711-4.463,4.486-6.173-.775-1.71-2.291-4.133-4.486-6.173-2.343-2.172-5.398-3.859-9.114-3.859ZM5.442,4.594C8.127,2.098,11.815,0,16.42,0s8.294,2.098,10.978,4.594c2.668,2.48,4.452,5.438,5.301,7.473.188.45.188.952,0,1.402-.849,2.035-2.633,4.999-5.301,7.473-2.685,2.491-6.373,4.594-10.978,4.594s-8.294-2.098-10.978-4.594C2.774,18.462.99,15.504.141,13.469c-.188-.45-.188-.952,0-1.402.849-2.035,2.633-4.999,5.301-7.473ZM16.42,17.328c2.519,0,4.56-2.041,4.56-4.56,0-1.687-.918-3.164-2.28-3.95-.08,3.403-2.827,6.15-6.23,6.23.787,1.362,2.263,2.28,3.95,2.28ZM11.883,12.289c.143.017.285.023.433.023,2.012,0,3.648-1.636,3.648-3.648,0-.148-.011-.291-.023-.433-2.132.222-3.83,1.921-4.053,4.053l-.006.006ZM14.482,5.734c.616-.171,1.265-.257,1.932-.257.502,0,.998.051,1.471.148.017.006.029.006.046.011,3.3.695,5.78,3.631,5.78,7.136,0,4.03-3.266,7.296-7.296,7.296-3.511,0-6.441-2.48-7.136-5.78-.103-.49-.16-.998-.16-1.516,0-.627.08-1.243.228-1.824.011-.04.017-.074.029-.108.678-2.474,2.628-4.423,5.102-5.102l.006-.006Z" fill="#053773"/>
</svg>