<?xml version="1.0" encoding="UTF-8"?>
<svg id="a" data-name="Layer 1" xmlns="http://www.w3.org/2000/svg" viewBox="0 0 49.716 41.258">
  <path d="M47.235,18.148H11.451l20.851-13.282c.6-.379,1.015-.971,1.166-1.663.154-.687.028-1.392-.349-1.984-.779-1.225-2.414-1.586-3.654-.81L1.22,18.399c-.764.489-1.22,1.322-1.22,2.23s.456,1.737,1.22,2.227l28.248,17.992c.428.269.917.41,1.417.41.907,0,1.74-.456,2.232-1.217l.003-.003c.377-.592.502-1.297.349-1.986-.151-.692-.566-1.284-1.163-1.663l-20.852-13.28h35.782c1.371,0,2.481-1.11,2.481-2.481s-1.11-2.481-2.481-2.481Z" fill="#1d1d1b"/>
</svg>