<?xml version="1.0" encoding="UTF-8"?>
<svg id="a" data-name="Layer 2" xmlns="http://www.w3.org/2000/svg" xmlns:xlink="http://www.w3.org/1999/xlink" viewBox="0 0 1920 1080">
  <defs>
    <linearGradient id="b" x1="1058.949" y1="79.049" x2="834.032" y2="965.764" gradientUnits="userSpaceOnUse">
      <stop offset="0" stop-color="#66ddf9"/>
      <stop offset=".233" stop-color="#86e1f1"/>
      <stop offset=".741" stop-color="#d7eddf"/>
      <stop offset=".976" stop-color="#fff3d6"/>
    </linearGradient>
    <clipPath id="c">
      <rect x="1393.509" y="976.726" width="145.725" height="103.274" fill="none"/>
    </clipPath>
  </defs>
  <rect y="929.555" width="1920" height="150.445" fill="#945f4b"/>
  <rect x="2.216" width="1917.784" height="929.555" fill="url(#b)"/>
  <path d="M1458.185,826.463c-1.409-2.595,4.774-23.864,24.304-32.298,21.511-9.289,56.38-5.739,56.696-4.892.166.443-.031,2.25-1.59,2.23-22.374-.288-75.701,30.664-77.831,35.791-.307.739-1.332-.377-1.579-.831Z" fill="#caff64" opacity=".67"/>
  <rect y="917.608" width="1920" height="11.947" fill="#ff8227"/>
  <g>
    <path d="M1438.771,1074.116s-4.132-73.238-2.118-145.73,12.491-92.02,15.822-99.931,7.712-26.408,27.282-36.401c19.57-9.993,62.961-7.422,64.753-4.095s-32.776,44.175-47.349,50.42c-14.573,6.246-38.964-10.41-41.462,0s-9.12,27.078-11.161,84.347-.178,145.913-.178,145.913l-5.589,5.478Z" fill="#51d03c" stroke="#244d28" stroke-miterlimit="10" stroke-width="3"/>
    <g clip-path="url(#c)">
      <g>
        <path d="M1453.904,1109.115c-4.762,0-9.397-.715-13.777-2.126-7.399-2.383-12.093-6.35-13.95-11.79-3.809-11.161,5.788-25.144,9.401-30.407.463-.675.984-1.436,1.125-1.691.912-2.542,1.029-5.683,1.164-9.314.198-5.299.422-11.305,3.185-17.672,5.119-11.796,14.675-17.53,29.212-17.53,2.602,0,5.399.192,8.318.571,9.918,1.287,17.987,6.653,22.72,15.108,6.294,11.244,5.875,26.688-1.15,42.37-9.109,20.339-26.398,32.481-46.247,32.481Z" fill="#ffc37b"/>
        <path d="M1470.265,1020.584c2.479,0,5.158.178,8.06.554,21.501,2.791,32.898,25.885,20.002,54.678-10.048,22.433-28.154,31.298-44.421,31.298-4.612,0-9.073-.712-13.165-2.029-28.486-9.172-3.007-38.977-2.182-41.236,2.465-6.745-.197-16.512,4.328-26.94,3.915-9.02,11.487-16.325,27.378-16.326M1470.267,1016.584v4-4h-.002c-15.207,0-25.653,6.303-31.047,18.733-2.913,6.713-3.155,13.19-3.349,18.394-.126,3.375-.235,6.306-.987,8.535-.186.295-.59.884-.953,1.412-4.123,6.007-13.778,20.074-9.645,32.186,2.072,6.071,7.196,10.461,15.23,13.048,4.578,1.474,9.42,2.222,14.391,2.222,20.659,0,38.63-12.584,48.072-33.663,7.286-16.266,7.676-32.364,1.07-44.166-5.049-9.021-13.646-14.743-24.207-16.114-3.003-.39-5.887-.587-8.572-.587h0Z" fill="#72402c"/>
      </g>
    </g>
  </g>
</svg>